<svg data-v-423bf9ae="" xmlns="http://www.w3.org/2000/svg" viewBox="0 0 253.4797223390151 60" class="font"><!----><!----><!----><g data-v-423bf9ae="" id="0b6fc4cc-de5e-4495-a354-9cf40811755e" fill="white" transform="matrix(3.378378334839559,0,0,3.378378334839559,-2.027026166569385,-8.310810832580223)"><path d="M3.81 8.48L3.81 8.48Q4.23 8.86 4.74 9.23Q5.25 9.60 5.76 9.98Q6.27 10.36 6.69 10.75L6.69 10.75Q7.64 11.63 7.64 12.70L7.64 12.70Q7.64 14.01 6.64 14.90Q5.64 15.78 4.00 15.78Q2.37 15.78 1.48 15.04Q0.60 14.29 0.60 13.27L0.60 13.27Q0.60 12.52 1.05 12.05Q1.50 11.58 2.21 11.58L2.21 11.58Q2.41 11.58 2.59 11.63L2.59 11.63Q2.16 12.29 2.16 13.04Q2.16 13.79 2.67 14.32Q3.19 14.85 4.23 14.85L4.23 14.85Q4.97 14.85 5.55 14.40Q6.13 13.94 6.13 13.13L6.13 13.13Q6.13 12.60 5.78 12.09Q5.43 11.58 4.91 11.19Q4.40 10.79 3.78 10.31Q3.16 9.83 2.65 9.38Q2.13 8.93 1.78 8.29Q1.43 7.64 1.43 6.94L1.43 6.94Q1.43 5.61 2.33 4.84Q3.23 4.06 4.94 4.06L4.94 4.06Q6.33 4.06 7.12 4.79Q7.91 5.53 7.91 6.32Q7.91 7.11 7.48 7.62Q7.06 8.12 6.31 8.12L6.31 8.12Q6.06 8.12 5.82 8.06L5.82 8.06Q6.51 7.34 6.51 6.52Q6.51 5.71 6.01 5.30Q5.50 4.89 4.73 4.89Q3.95 4.89 3.40 5.33Q2.86 5.78 2.86 6.69Q2.86 7.60 3.81 8.48ZM14.35 7.76L14.35 7.76Q14.35 8.34 14.13 8.57Q13.90 8.79 13.47 8.79L13.47 8.79L12.46 8.79Q12.40 9.16 12.17 10.53L12.17 10.53Q11.69 13.13 11.69 14.46Q11.69 15.79 11.89 16.23L11.89 16.23Q11.09 15.93 10.75 15.34Q10.42 14.74 10.42 13.89Q10.42 13.03 10.52 12.27Q10.63 11.51 10.82 10.49Q11.02 9.46 11.10 8.85L11.10 8.85Q10.30 8.96 9.53 9.30L9.53 9.30Q9.51 9.07 9.51 8.89L9.51 8.89Q9.51 8.22 9.95 7.99Q10.40 7.76 11.24 7.76L11.24 7.76Q11.34 6.72 11.34 6.21Q11.34 5.70 11.33 5.39Q11.33 5.08 11.33 4.93L11.33 4.93Q11.97 5.03 12.32 5.50Q12.67 5.96 12.67 6.78L12.67 6.78Q12.67 7.20 12.60 7.80L12.60 7.80Q13.82 7.80 14.32 7.39L14.32 7.39Q14.35 7.59 14.35 7.76ZM20.57 10.83Q20.57 9.46 20.22 8.87Q19.88 8.27 19.24 8.27Q18.61 8.27 17.96 8.90Q17.32 9.52 16.95 10.44Q16.58 11.35 16.58 12.34Q16.58 13.33 16.95 14.05Q17.33 14.77 18.10 14.77L18.10 14.77Q19.19 14.77 19.88 13.48Q20.57 12.19 20.57 10.83ZM16.51 10.29Q17.04 8.78 17.94 8.09Q18.84 7.39 19.78 7.39Q20.71 7.39 21.32 8.21Q21.94 9.03 21.94 10.43L21.94 10.43Q21.94 11.97 21.35 13.29L21.35 13.29Q20.69 14.74 19.45 15.32L19.45 15.32Q18.77 15.64 17.96 15.64L17.96 15.64Q16.83 15.64 15.97 14.69Q15.12 13.75 15.12 11.99Q15.12 10.23 15.88 8.95Q16.63 7.66 17.93 7.15L17.93 7.15Q18.21 7.15 18.21 7.43L18.21 7.43Q16.83 8.34 16.51 10.29L16.51 10.29ZM25.75 10.88Q26.25 9.06 26.96 8.20Q27.66 7.34 28.27 7.34Q28.88 7.34 29.19 7.79Q29.50 8.25 29.50 8.95Q29.50 9.65 29.13 10.16Q28.77 10.67 28.07 10.67L28.07 10.67Q27.85 10.67 27.72 10.64L27.72 10.64Q28.20 9.95 28.20 9.24L28.20 9.24Q28.20 8.74 27.79 8.74L27.79 8.74Q27.47 8.74 27.10 9.11Q26.74 9.49 26.40 10.16Q26.07 10.84 25.84 11.91Q25.62 12.99 25.62 14.24L25.62 14.24Q25.62 14.38 25.69 15.43L25.69 15.43Q25.33 15.46 25.27 15.46L25.27 15.46Q24.04 15.46 24.04 14.25L24.04 14.25Q24.04 13.97 24.33 12.10Q24.63 10.22 24.63 9.11Q24.63 7.99 24.39 7.06L24.39 7.06Q25.21 7.38 25.54 7.97Q25.87 8.57 25.87 9.36Q25.87 10.15 25.75 10.88L25.75 10.88ZM36.27 8.32L36.27 8.32Q36.27 8.81 35.85 9.67Q35.43 10.54 34.83 11.58Q34.23 12.61 33.63 13.78Q33.03 14.95 32.61 16.35Q32.19 17.74 32.19 19.01L32.19 19.01Q32.19 19.64 32.28 20.22L32.28 20.22Q31.39 20.01 31.07 19.59Q30.76 19.18 30.76 18.62L30.76 18.62Q30.76 17.82 31.74 15.58L31.74 15.58Q31.53 14.71 31.22 12.86Q30.91 11.00 30.60 9.63Q30.28 8.26 29.88 7.59L29.88 7.59Q30.41 7.22 30.79 7.22L30.79 7.22Q31.51 7.22 31.78 7.97Q32.05 8.72 32.25 10.84Q32.45 12.95 32.66 13.94L32.66 13.94Q35.41 8.78 35.41 7.04L35.41 7.04Q36.27 7.63 36.27 8.32ZM40.36 8.48L40.36 8.48Q40.78 8.86 41.29 9.23Q41.80 9.60 42.32 9.98Q42.83 10.36 43.25 10.75L43.25 10.75Q44.20 11.63 44.20 12.70L44.20 12.70Q44.20 14.01 43.20 14.90Q42.20 15.78 40.56 15.78Q38.92 15.78 38.04 15.04Q37.16 14.29 37.16 13.27L37.16 13.27Q37.16 12.52 37.60 12.05Q38.05 11.58 38.77 11.58L38.77 11.58Q38.96 11.58 39.14 11.63L39.14 11.63Q38.71 12.29 38.71 13.04Q38.71 13.79 39.23 14.32Q39.75 14.85 40.78 14.85L40.78 14.85Q41.52 14.85 42.11 14.40Q42.69 13.94 42.69 13.13L42.69 13.13Q42.69 12.60 42.34 12.09Q41.99 11.58 41.47 11.19Q40.95 10.79 40.33 10.31Q39.72 9.83 39.20 9.38Q38.68 8.93 38.33 8.29Q37.98 7.64 37.98 6.94L37.98 6.94Q37.98 5.61 38.89 4.84Q39.79 4.06 41.50 4.06L41.50 4.06Q42.88 4.06 43.67 4.79Q44.46 5.53 44.46 6.32Q44.46 7.11 44.04 7.62Q43.61 8.12 42.87 8.12L42.87 8.12Q42.62 8.12 42.38 8.06L42.38 8.06Q43.06 7.34 43.06 6.52Q43.06 5.71 42.56 5.30Q42.06 4.89 41.28 4.89Q40.50 4.89 39.96 5.33Q39.41 5.78 39.41 6.69Q39.41 7.60 40.36 8.48ZM50.90 7.76L50.90 7.76Q50.90 8.34 50.68 8.57Q50.46 8.79 50.02 8.79L50.02 8.79L49.01 8.79Q48.96 9.16 48.72 10.53L48.72 10.53Q48.24 13.13 48.24 14.46Q48.24 15.79 48.44 16.23L48.44 16.23Q47.64 15.93 47.31 15.34Q46.97 14.74 46.97 13.89Q46.97 13.03 47.08 12.27Q47.18 11.51 47.38 10.49Q47.57 9.46 47.66 8.85L47.66 8.85Q46.86 8.96 46.09 9.30L46.09 9.30Q46.06 9.07 46.06 8.89L46.06 8.89Q46.06 8.22 46.51 7.99Q46.96 7.76 47.80 7.76L47.80 7.76Q47.89 6.72 47.89 6.21Q47.89 5.70 47.89 5.39Q47.88 5.08 47.88 4.93L47.88 4.93Q48.52 5.03 48.87 5.50Q49.22 5.96 49.22 6.78L49.22 6.78Q49.22 7.20 49.15 7.80L49.15 7.80Q50.37 7.80 50.88 7.39L50.88 7.39Q50.90 7.59 50.90 7.76ZM53.86 9.95Q53.45 10.65 53.23 11.39Q53.02 12.12 53.02 12.80Q53.02 13.47 53.32 13.94Q53.62 14.41 54.18 14.41L54.18 14.41Q54.96 14.41 55.65 13.55Q56.34 12.68 56.71 11.46Q57.08 10.23 57.08 9.19Q57.08 8.15 56.99 7.48L56.99 7.48Q57.33 7.45 57.41 7.45L57.41 7.45Q58.60 7.45 58.60 8.67L58.60 8.67Q58.60 8.93 58.27 10.83Q57.93 12.73 57.93 13.87Q57.93 15.01 58.37 15.89L58.37 15.89Q57.48 15.71 57.08 15.11Q56.69 14.52 56.69 13.40L56.69 13.40Q56.69 13.20 56.74 12.64L56.74 12.64Q56.36 13.97 55.41 14.78Q54.46 15.60 53.54 15.60Q52.63 15.60 52.07 14.90Q51.51 14.21 51.51 12.99Q51.51 11.76 51.96 10.59Q52.42 9.42 53.33 8.57Q54.25 7.71 55.38 7.71L55.38 7.71Q55.87 7.71 56.46 7.91L56.46 7.91Q55.64 8.12 54.95 8.68Q54.26 9.24 53.86 9.95ZM63.17 8.73Q62.62 9.38 62.35 10.33Q62.08 11.27 62.08 12.35Q62.08 13.43 62.44 14.08Q62.80 14.74 63.41 14.74Q64.02 14.74 64.61 14.38Q65.20 14.01 65.60 13.37L65.60 13.37Q66.12 13.44 66.12 13.75L66.12 13.75Q65.74 14.45 65.18 14.90Q64.61 15.34 64.12 15.49Q63.63 15.64 63.13 15.64L63.13 15.64Q62.05 15.64 61.31 14.79Q60.56 13.94 60.56 12.33L60.56 12.33Q60.56 10.29 61.67 8.82Q62.78 7.35 64.61 7.35L64.61 7.35Q65.62 7.35 66.14 7.88Q66.65 8.40 66.65 9.09Q66.65 9.79 66.27 10.28Q65.88 10.77 65.28 10.77L65.28 10.77Q64.90 10.77 64.64 10.64L64.64 10.64Q64.86 10.39 65.02 9.93Q65.18 9.48 65.18 9.04L65.18 9.04Q65.18 8.08 64.39 8.08L64.39 8.08Q63.71 8.08 63.17 8.73ZM69.99 11.10Q70.42 9.10 71.25 8.21Q72.07 7.32 72.86 7.32Q73.64 7.32 74.08 7.80Q74.52 8.27 74.52 9.14Q74.52 10.00 74.03 10.68Q73.54 11.35 72.69 11.68L72.69 11.68L72.86 12.19Q73.32 13.64 74.20 15.05Q75.08 16.46 75.63 16.98L75.63 16.98Q75.25 17.11 74.91 17.11Q74.56 17.11 74.21 16.93Q73.86 16.76 73.60 16.54Q73.35 16.32 73.06 15.86Q72.77 15.39 72.60 15.06Q72.44 14.74 72.18 14.08L72.18 14.08Q71.92 13.40 71.44 12.01L71.44 12.01Q71.26 12.03 70.91 12.03L70.91 12.03Q70.83 11.96 70.83 11.58L70.83 11.58Q71.46 11.56 71.95 11.33Q72.44 11.09 72.69 10.72L72.69 10.72Q73.22 9.98 73.22 9.23L73.22 9.23Q73.22 8.85 73.04 8.60Q72.87 8.36 72.53 8.36L72.53 8.36Q71.95 8.36 71.34 9.14Q70.74 9.91 70.33 11.27Q69.92 12.63 69.92 14.11L69.92 14.11Q69.92 14.94 70.00 15.43L70.00 15.43Q69.66 15.46 69.62 15.46L69.62 15.46Q68.96 15.46 68.65 15.18Q68.33 14.90 68.33 14.30Q68.33 13.71 68.57 12.01L68.57 12.01Q69.33 6.80 69.33 4.10L69.33 4.10Q69.33 2.88 69.16 2.46L69.16 2.46Q69.97 2.76 70.30 3.33Q70.63 3.91 70.63 4.91L70.63 4.91Q70.63 5.61 70.36 7.85Q70.08 10.09 69.99 11.10L69.99 11.10Z"></path></g><!----><!----></svg>